<?xml version="1.0" encoding="UTF-8" standalone="no"?>
<!-- Created with Inkscape (http://www.inkscape.org/) -->

<svg
   xmlns:dc="http://purl.org/dc/elements/1.1/"
   xmlns:cc="http://creativecommons.org/ns#"
   xmlns:rdf="http://www.w3.org/1999/02/22-rdf-syntax-ns#"
   xmlns:svg="http://www.w3.org/2000/svg"
   xmlns="http://www.w3.org/2000/svg"
   xmlns:sodipodi="http://sodipodi.sourceforge.net/DTD/sodipodi-0.dtd"
   xmlns:inkscape="http://www.inkscape.org/namespaces/inkscape"
   width="113.33008"
   height="73.339844"
   id="svg2"
   version="1.1"
   inkscape:version="0.48.5 r10040"
   inkscape:export-filename="/Users/aleos/Developer/ios/dayOfCycle/dayOfCycleProtoV2MainScreen.png"
   inkscape:export-xdpi="90"
   inkscape:export-ydpi="90"
   sodipodi:docname="dayOfCycleDecorationTop.svg">
  <defs
     id="defs4">
    <linearGradient
       id="linearGradient4275">
      <stop
         id="stop4277"
         offset="0"
         style="stop-color:#ffffff;stop-opacity:1;" />
      <stop
         style="stop-color:#cdc5cd;stop-opacity:1;"
         offset="0.57961786"
         id="stop4283" />
      <stop
         id="stop4279"
         offset="1"
         style="stop-color:#aa99aa;stop-opacity:1;" />
    </linearGradient>
  </defs>
  <sodipodi:namedview
     id="base"
     pagecolor="#ffffff"
     bordercolor="#666666"
     borderopacity="1.0"
     inkscape:pageopacity="0.0"
     inkscape:pageshadow="2"
     inkscape:zoom="15.121385"
     inkscape:cx="56.665039"
     inkscape:cy="36.669922"
     inkscape:document-units="px"
     inkscape:current-layer="layer1"
     showgrid="false"
     showguides="true"
     inkscape:guide-bbox="true"
     inkscape:window-width="2484"
     inkscape:window-height="1286"
     inkscape:window-x="18"
     inkscape:window-y="1"
     inkscape:window-maximized="0"
     fit-margin-top="0"
     fit-margin-left="0"
     fit-margin-right="0"
     fit-margin-bottom="0" />
  <metadata
     id="metadata7">
    <rdf:RDF>
      <cc:Work
         rdf:about="">
        <dc:format>image/svg+xml</dc:format>
        <dc:type
           rdf:resource="http://purl.org/dc/dcmitype/StillImage" />
        <dc:title></dc:title>
      </cc:Work>
    </rdf:RDF>
  </metadata>
  <g
     inkscape:label="Layer 1"
     inkscape:groupmode="layer"
     id="layer1"
     transform="translate(-30.33496,-153.81473)">
    <text
       xml:space="preserve"
       style="font-size:40px;font-style:normal;font-weight:normal;line-height:125%;letter-spacing:0px;word-spacing:0px;fill:#000000;fill-opacity:1;stroke:none;font-family:Sans"
       x="121.2083"
       y="160.19838"
       id="text3099"
       sodipodi:linespacing="125%"
       transform="translate(0,112.36218)"><tspan
         sodipodi:role="line"
         id="tspan3101"
         x="121.2083"
         y="160.19838" /></text>
    <g
       transform="matrix(1,0,0,-1,12.448791,-20.000003)"
       style="font-size:100px;font-style:normal;font-variant:normal;font-weight:500;font-stretch:normal;text-align:start;line-height:125%;letter-spacing:0px;word-spacing:0px;writing-mode:lr-tb;text-anchor:start;fill:#000000;fill-opacity:1;stroke:none;font-family:Type Embellishments One LET;-inkscape-font-specification:Type Embellishments One LET Medium"
       id="text3349">
      <path
         d="m 113.97992,-207.01785 c 1.98557,-0.87888 4.02008,-1.31833 6.10352,-1.31836 2.14832,3e-5 4.05262,0.34183 5.71289,1.02539 1.69259,0.68362 3.01095,1.62763 3.95507,2.83203 0.97645,1.20445 1.46473,2.52281 1.46485,3.95508 -1.2e-4,1.59507 -0.4884,3.04364 -1.46485,4.3457 -0.97667,1.3021 -2.39269,2.47398 -4.24804,3.51563 -1.85558,1.00913 -4.02029,1.79037 -6.49414,2.34375 -1.75792,2.89714 -4.24815,5.09441 -7.47071,6.59179 -3.22275,1.46485 -6.99879,2.19727 -11.32812,2.19727 -4.62248,0 -9.375079,-0.84635 -14.257814,-2.53906 -4.850329,-1.72526 -9.30996,-4.03645 -13.378907,-6.9336 -4.036513,-2.89712 -7.24289,-6.07094 -9.61914,-9.52148 -2.37635,-3.48305 -3.5645,-6.88474 -3.564453,-10.20508 -4.7e-5,-5.50126 3.336539,-8.49605 10.009765,-8.98438 2.506452,-0.26037 4.134055,-0.48823 4.882813,-0.68359 0.781188,-0.22782 1.481057,-0.63472 2.099609,-1.2207 0.943946,-0.84631 1.415951,-2.08329 1.416016,-3.71094 -6.5e-5,-0.7812 -0.162825,-1.75776 -0.488281,-2.92969 3.124932,2.37635 4.687431,5.68039 4.6875,9.91211 -6.9e-5,2.5391 -0.520902,4.78519 -1.5625,6.73828 -1.009181,1.95316 -2.441471,3.48311 -4.296875,4.58985 -1.822978,1.1068 -3.873757,1.66018 -6.152344,1.66015 -2.539117,3e-5 -5.029349,-0.55335 -7.470703,-1.66015 0.650991,2.76695 2.21349,5.5827 4.6875,8.44726 2.473902,2.8646 5.533794,5.48504 9.179687,7.86133 3.645767,2.37631 7.552013,4.26433 11.71875,5.66406 4.166588,1.39975 8.137938,2.09962 11.914067,2.09961 7.84495,1e-5 13.60667,-2.45767 17.28515,-7.37304 -1.17198,0.32553 -2.70192,0.48829 -4.58984,0.48828 -5.98968,1e-5 -11.1329,-1.26952 -15.429689,-3.8086 -4.264403,-2.53904 -6.396562,-5.56638 -6.396485,-9.08203 -7.7e-5,-2.40882 1.07414,-4.36195 3.222657,-5.85937 2.180906,-1.49737 4.980382,-2.24606 8.398437,-2.2461 4.49209,4e-5 8.31696,1.26957 11.47461,3.8086 m -59.375001,-1.12305 c -3.287798,1.59508 -6.689487,2.39261 -10.205078,2.39258 -2.376331,3e-5 -4.524766,-0.32549 -6.445312,-0.97656 -1.920596,-0.65102 -4.166687,-1.79034 -6.738281,-3.41797 -3.255224,-2.05075 -5.729179,-3.43421 -7.421875,-4.15039 -1.660166,-0.71611 -3.466804,-1.23694 -5.419922,-1.5625 1.04166,-1.04163 2.115878,-1.87171 3.222656,-2.49024 1.139313,-0.61845 2.539051,-1.15555 4.199219,-1.61133 -1.334647,-2.08328 -2.001964,-4.41076 -2.001953,-6.98242 -1.1e-5,-0.8463 0.130197,-2.21349 0.390625,-4.10156 l 0.830078,-4.19922 c 0.130196,-0.78119 0.1953,-1.57872 0.195312,-2.39258 -1.2e-5,-2.47389 -0.634777,-4.5084 -1.904297,-6.10351 -1.236988,-1.62754 -3.043627,-2.70176 -5.419922,-3.22266 1.627598,-0.13014 2.539056,-0.19524 2.734375,-0.19531 3.255198,7e-5 6.396471,0.9278 9.423829,2.7832 3.059875,1.82298 5.566383,4.28066 7.519531,7.37305 1.985651,3.05995 3.190076,6.41281 3.613281,10.05859 1.171846,-1.43224 2.34372,-2.50646 3.515625,-3.22265 1.204394,-0.74865 2.636685,-1.36714 4.296875,-1.85547 -1.464878,3.87375 -2.197299,7.19406 -2.197266,9.96093 -3.3e-5,6.70577 2.604131,11.34444 7.8125,13.91602 m -30.908203,26.12305 c 1.399728,1.26953 2.86457,1.9043 4.394532,1.90429 1.529931,1e-5 2.994773,-0.56965 4.394531,-1.70898 1.399719,-1.17187 2.506488,-2.70182 3.320312,-4.58984 l 2.001953,-4.93164 c 2.701796,-6.73826 7.128875,-10.1074 13.28125,-10.10743 4.687458,3e-5 8.886672,2.44143 12.597657,7.32422 l -0.390625,0.29297 c -2.181038,-2.53904 -4.573614,-3.80857 -7.177735,-3.80859 -4.394569,2e-5 -7.307978,2.73439 -8.740234,8.20312 l -1.367188,5.41992 c -0.781282,3.22266 -2.164744,5.72917 -4.15039,7.51954 -1.985704,1.79036 -4.37828,2.68554 -7.177735,2.68554 -2.604185,0 -4.850277,-0.69987 -6.738281,-2.09961 -1.855481,-1.36718 -3.271496,-3.40169 -4.248047,-6.10351 m 91.503904,-24.02344 c 3.54807,3.05992 5.32216,6.46161 5.32227,10.20508 -1.1e-4,1.10679 -0.2768,2.37632 -0.83008,3.80859 3.12489,-0.68358 5.58257,-1.79035 7.37305,-3.32031 1.8228,-1.52993 2.73426,-3.28774 2.73437,-5.27344 -1.1e-4,-1.88799 -0.91157,-3.40166 -2.73437,-4.54101 -1.79048,-1.17185 -4.11795,-1.75779 -6.98242,-1.75782 -1.62771,3e-5 -3.25532,0.293 -4.88282,0.87891 m -1.2207,0.48828 c -3.1902,1.62763 -4.78525,3.69469 -4.78516,6.20117 -9e-5,1.9857 0.89509,3.53192 2.68555,4.63867 l -0.29297,0.6836 c -2.3764,-1.0742 -3.56455,-2.91339 -3.56445,-5.51758 -1e-4,-2.7669 1.5624,-5.02927 4.6875,-6.78711 -3.09255,-2.0833 -6.39658,-3.12497 -9.91211,-3.125 -3.125088,3e-5 -5.647872,0.65107 -7.568361,1.95313 -1.888101,1.26956 -2.83211,2.89716 -2.832031,4.88281 -7.9e-5,1.95315 0.927654,3.80861 2.783203,5.5664 1.855385,1.75784 4.345617,3.15757 7.470699,4.19922 3.12491,1.00913 6.44522,1.51369 9.96094,1.51368 2.05068,1e-5 3.90615,-0.16275 5.56641,-0.48829 0.61838,-1.66014 0.92763,-3.02732 0.92773,-4.10156 -1e-4,-3.28774 -1.70909,-6.49411 -5.12695,-9.61914 m -35.302735,-17.96875 c -0.162826,1.6602 -0.797591,2.97856 -1.904297,3.95508 -1.106833,0.94405 -3.027404,1.7904 -5.761719,2.53906 -2.148493,0.45577 -3.597059,0.84639 -4.345703,1.17188 -0.74875,0.32556 -1.432343,0.79756 -2.050781,1.41601 -1.595102,1.39978 -2.392627,3.20642 -2.392578,5.41992 0.0325,0.13024 0.04878,0.26045 0.04883,0.39063 0.0325,0.13024 0.04878,0.32555 0.04883,0.58594 1.464793,0.81383 2.929636,1.22073 4.394531,1.2207 1.920518,3e-5 3.710881,-0.60218 5.371094,-1.80664 -1.302141,-0.26039 -2.32753,-0.8626 -3.076172,-1.80664 0.455673,0.0651 0.911402,0.0977 1.367188,0.0977 3.45046,4e-5 6.022072,-1.30204 7.714844,-3.90625 -1.139387,0.39067 -2.067121,0.58598 -2.783204,0.58594 -0.45579,4e-5 -1.025451,-0.0976 -1.708984,-0.29297 1.725198,-0.45569 3.059832,-1.30204 4.003906,-2.53906 0.943945,-1.23694 1.41595,-2.75061 1.416016,-4.54101 -6.6e-5,-0.651 -0.113998,-1.48108 -0.341797,-2.49024 m -25.585937,15.2832 c -3.938838,-0.81377 -7.53584,-2.84827 -10.791016,-6.10351 -2.018256,-2.0833 -3.613307,-4.28056 -4.785156,-6.5918 -1.139346,-2.31115 -2.343772,-5.71284 -3.613282,-10.20508 -0.813822,-3.02728 -1.774107,-5.55007 -2.880859,-7.56836 -1.074235,-2.05071 -2.360041,-3.64576 -3.857422,-4.78515 -1.464856,-1.17181 -3.255219,-2.05072 -5.371094,-2.63672 3.710926,2.18106 5.843085,5.51764 6.396485,10.00976 l 0.830078,4.88282 c 0.162744,1.56255 0.862613,3.40174 2.099609,5.51758 -1.334652,-0.58589 -2.278661,-1.07417 -2.832031,-1.46485 -0.520848,-0.39057 -1.188165,-1.07417 -2.001953,-2.05078 0.455716,3.64588 1.839178,6.81971 4.150391,9.52148 2.34373,2.70187 5.403623,4.65499 9.179687,5.85938 -1.464869,0.74873 -2.929711,1.12308 -4.394531,1.12305 -0.292991,3e-5 -0.960308,-0.0651 -2.001953,-0.19532 1.75779,1.59509 3.97133,2.86462 6.640625,3.8086 2.701793,0.91149 5.517546,1.36722 8.447265,1.36719 1.692672,3e-5 3.287722,-0.16273 4.785157,-0.48829 m -27.294922,28.61329 c 1.464829,1.13932 3.238916,1.70898 5.322265,1.70898 2.50649,0 4.736306,-0.76497 6.689453,-2.29492 -0.325545,1.43229 -1.057966,2.75065 -2.197265,3.95508 2.539037,-0.58594 4.524712,-2.08334 5.957031,-4.49219 1.464814,-2.4414 2.278615,-5.6315 2.441406,-9.57031 0.618458,1.4323 1.009083,2.86459 1.171875,4.29687 0.09762,-0.16275 0.162729,-0.30923 0.195313,-0.43945 0.06507,-0.1302 0.1139,-0.22786 0.146484,-0.29297 l 1.171875,-4.39453 c 0.651008,-2.31118 1.790329,-4.11782 3.417969,-5.41992 1.627566,-1.30207 3.596965,-1.95311 5.908203,-1.95313 0.292926,2e-5 0.569618,0.0163 0.830078,0.0488 0.292925,2e-5 0.602169,0.0163 0.927735,0.0488 -1.529991,-0.81378 -3.059938,-1.22068 -4.589844,-1.22071 -4.166703,3e-5 -7.763704,2.66929 -10.791016,8.00782 l -2.490234,4.19922 c -1.660181,2.86459 -3.352888,4.98047 -5.078125,6.34765 -1.725281,1.36719 -3.629575,2.05078 -5.712891,2.05078 -0.683609,0 -1.790379,-0.19531 -3.320312,-0.58593"
         id="path3496"
         inkscape:connector-curvature="0" />
    </g>
  </g>
</svg>
