<?xml version="1.0" encoding="UTF-8" standalone="no"?>
<!-- Created with Inkscape (http://www.inkscape.org/) -->

<svg
   xmlns:dc="http://purl.org/dc/elements/1.1/"
   xmlns:cc="http://creativecommons.org/ns#"
   xmlns:rdf="http://www.w3.org/1999/02/22-rdf-syntax-ns#"
   xmlns:svg="http://www.w3.org/2000/svg"
   xmlns="http://www.w3.org/2000/svg"
   xmlns:sodipodi="http://sodipodi.sourceforge.net/DTD/sodipodi-0.dtd"
   xmlns:inkscape="http://www.inkscape.org/namespaces/inkscape"
   width="148.85254"
   height="86.708977"
   id="svg2"
   version="1.1"
   inkscape:version="0.48.5 r10040"
   inkscape:export-filename="/Users/aleos/Developer/ios/dayOfCycle/dayOfCycleProtoV2MainScreen.png"
   inkscape:export-xdpi="90"
   inkscape:export-ydpi="90"
   sodipodi:docname="dayOfCycleDecorationBottom.svg">
  <defs
     id="defs4">
    <linearGradient
       id="linearGradient4275">
      <stop
         id="stop4277"
         offset="0"
         style="stop-color:#ffffff;stop-opacity:1;" />
      <stop
         style="stop-color:#cdc5cd;stop-opacity:1;"
         offset="0.57961786"
         id="stop4283" />
      <stop
         id="stop4279"
         offset="1"
         style="stop-color:#aa99aa;stop-opacity:1;" />
    </linearGradient>
  </defs>
  <sodipodi:namedview
     id="base"
     pagecolor="#ffffff"
     bordercolor="#666666"
     borderopacity="1.0"
     inkscape:pageopacity="0.0"
     inkscape:pageshadow="2"
     inkscape:zoom="0.58989362"
     inkscape:cx="24.30454"
     inkscape:cy="352.19116"
     inkscape:document-units="px"
     inkscape:current-layer="layer1"
     showgrid="false"
     showguides="true"
     inkscape:guide-bbox="true"
     inkscape:window-width="2484"
     inkscape:window-height="1286"
     inkscape:window-x="18"
     inkscape:window-y="1"
     inkscape:window-maximized="0"
     fit-margin-top="0"
     fit-margin-left="0"
     fit-margin-right="0"
     fit-margin-bottom="0" />
  <metadata
     id="metadata7">
    <rdf:RDF>
      <cc:Work
         rdf:about="">
        <dc:format>image/svg+xml</dc:format>
        <dc:type
           rdf:resource="http://purl.org/dc/dcmitype/StillImage" />
        <dc:title></dc:title>
      </cc:Work>
    </rdf:RDF>
  </metadata>
  <g
     inkscape:label="Layer 1"
     inkscape:groupmode="layer"
     id="layer1"
     transform="translate(-90.57373,-915.6532)">
    <text
       xml:space="preserve"
       style="font-size:40px;font-style:normal;font-weight:normal;line-height:125%;letter-spacing:0px;word-spacing:0px;fill:#000000;fill-opacity:1;stroke:none;font-family:Sans"
       x="121.2083"
       y="160.19838"
       id="text3099"
       sodipodi:linespacing="125%"
       transform="translate(0,112.36218)"><tspan
         sodipodi:role="line"
         id="tspan3101"
         x="121.2083"
         y="160.19838" /></text>
    <g
       id="text3263"
       style="font-size:130px;font-style:normal;font-variant:normal;font-weight:500;font-stretch:normal;text-align:start;line-height:125%;letter-spacing:0px;word-spacing:0px;writing-mode:lr-tb;text-anchor:start;fill:#000000;fill-opacity:1;stroke:none;font-family:Type Embellishments One LET;-inkscape-font-specification:Type Embellishments One LET Medium"
       transform="translate(4.47998,14)">
      <path
         inkscape:connector-curvature="0"
         id="path3502"
         d="m 171.2793,913.20593 c 2.66592,-3.76619 5.607,-6.62264 8.82324,-8.56933 3.25836,-1.98885 6.68609,-2.98332 10.2832,-2.9834 2.58127,8e-5 4.90874,0.5079 6.98242,1.52344 2.11577,1.0157 3.76616,2.43335 4.95118,4.25293 1.22709,1.81974 1.84069,3.87214 1.84082,6.15722 -1.3e-4,3.30085 -1.16386,5.98803 -3.49121,8.06153 l -1.07911,-0.76172 c 1.31173,-1.86191 1.96766,-3.85084 1.96778,-5.9668 -1.2e-4,-3.0468 -1.07922,-5.5647 -3.23731,-7.55371 -2.116,-1.98885 -4.80317,-2.98332 -8.06152,-2.9834 -5.75531,8e-5 -11.12966,3.47013 -16.12305,10.41016 4.31631,2.66608 8.18838,5.41673 11.61621,8.25195 3.42763,2.83535 6.55914,5.92454 9.39453,9.26758 2.87749,3.30083 5.35307,6.72856 7.42676,10.2832 3.55456,6.09379 6.62259,11.10843 9.2041,15.04395 2.58125,3.93557 4.80293,7.0036 6.66504,9.2041 1.90416,2.15822 3.72382,3.9144 5.45899,5.26855 1.7772,1.35418 3.40643,2.36981 4.88769,3.04688 1.48097,0.63478 3.53338,1.26954 6.15723,1.90429 l 0,1.6504 c -4.73973,-0.63476 -9.0773,-2.07356 -13.0127,-4.31641 -3.93568,-2.28514 -7.89238,-5.69171 -11.87011,-10.21973 -3.97799,-4.52796 -8.25208,-10.41012 -12.82227,-17.64648 -3.68175,-5.79748 -5.98807,-9.39448 -6.91894,-10.79102 -0.9311,-1.43875 -1.77746,-2.58132 -2.53907,-3.42773 -4.18955,-5.37429 -9.35231,-10.26198 -15.48828,-14.66309 -1.43889,2.66609 -2.34872,5.26862 -2.72949,7.80762 5.41657,3.55475 10.47353,8.20969 15.1709,13.96484 4.69715,5.75525 9.39442,13.05505 14.09179,21.89942 l -1.45996,0.88867 c -1.3966,-2.4544 -3.21626,-5.332 -5.45898,-8.63281 -2.20063,-3.30075 -4.48578,-6.47457 -6.85547,-9.52149 -2.83539,-3.59696 -5.52256,-6.58035 -8.06152,-8.95019 -2.49684,-2.41206 -5.18401,-4.50678 -8.06153,-6.28418 -0.0847,0.76177 -0.12704,1.54465 -0.12695,2.34863 -9e-5,3.2162 0.44425,6.53814 1.33301,9.96582 0.88858,3.38546 2.17927,6.77087 3.87207,10.15625 1.69261,3.38545 3.66038,6.58043 5.90332,9.58496 2.28505,2.96227 4.7818,5.62828 7.49023,7.99805 5.16265,4.40105 10.81206,7.76531 16.94825,10.09277 6.13593,2.28516 12.35663,3.42774 18.66211,3.42774 2.36964,0 5.22608,-0.2539 8.56933,-0.76172 l 0.12695,1.77734 c -4.06264,0.71941 -7.53269,1.07911 -10.41015,1.0791 -9.60625,1e-5 -18.64108,-2.45442 -27.10449,-7.36328 -8.46365,-4.95115 -15.25564,-11.53155 -20.37598,-19.74121 -5.07821,-8.2096 -7.61727,-16.90588 -7.61719,-26.08887 -8e-5,-1.56569 0.0422,-2.91986 0.12695,-4.0625 -3.51245,-2.03118 -6.89786,-3.5123 -10.15625,-4.44336 -3.21621,-0.93092 -6.55931,-1.39641 -10.02929,-1.39648 -5.33209,7e-5 -10.28326,1.1638 -14.85352,3.49121 -4.57036,2.32754 -8.20968,5.4802 -10.91797,9.45801 -2.66605,3.97791 -3.99906,8.29431 -3.99902,12.94922 -4e-5,4.78193 1.48108,8.95022 4.44336,12.50488 3.00451,3.51239 6.89774,5.75523 11.67969,6.72852 l 0,1.39648 c -3.72401,-0.42316 -7.06711,-1.62921 -10.0293,-3.61816 -2.91996,-1.98891 -5.18396,-4.61261 -6.79199,-7.8711 -1.60811,-3.25843 -2.41214,-6.79195 -2.41211,-10.60058 -3e-5,-5.07808 1.39645,-9.75418 4.18945,-14.02832 2.79293,-4.27403 6.5592,-7.6806 11.29883,-10.21973 4.73953,-2.53899 9.85997,-3.80852 15.36133,-3.80859 7.27857,7e-5 14.89575,2.03131 22.85156,6.09375 0.50773,-2.91986 1.37524,-5.5224 2.60254,-7.80762 -11.045,-6.22063 -22.25918,-9.33098 -33.64258,-9.33106 -8.67518,8e-5 -16.60974,1.77743 -23.80371,5.33203 -7.19403,3.51245 -12.864602,8.33666 -17.011718,14.47266 -4.104829,6.09381 -6.157236,12.80116 -6.157227,20.12207 -9e-6,7.19405 1.756175,13.7956 5.268555,19.80469 3.512352,5.96681 8.31541,10.66407 14.40918,14.0918 6.13603,3.38542 12.92802,5.07812 20.37598,5.07812 6.17833,0 11.76426,-1.0791 16.75781,-3.2373 5.03574,-2.20052 8.95012,-5.24739 11.74316,-9.14063 2.83521,-3.89321 4.25285,-8.29425 4.25293,-13.20312 -8e-5,-4.95114 -1.43888,-9.30986 -4.3164,-13.07618 -2.83536,-3.80854 -6.60164,-6.3476 -11.29883,-7.61718 l 0,-1.58692 c 3.55462,0.76177 6.70728,2.22173 9.45801,4.37989 2.75057,2.15824 4.88761,4.82426 6.41113,7.99804 1.56567,3.13155 2.34855,6.47464 2.34863,10.0293 -8e-5,5.33205 -1.54468,10.15627 -4.63379,14.47266 -3.04695,4.31641 -7.32103,7.68067 -12.82226,10.09277 -5.50137,2.41211 -11.63743,3.61816 -18.40821,3.61816 -5.45902,0 -10.38903,-0.78287 -14.79004,-2.34863 -4.40107,-1.56575 -8.61167,-3.99902 -12.63183,-7.2998 -3.173847,-2.62369 -5.903337,-5.58593 -8.188478,-8.88672 -2.242849,-3.30076 -3.935556,-6.85545 -5.078125,-10.66407 -1.142585,-3.85087 -1.713873,-7.80758 -1.713867,-11.87011 -6e-6,-7.998 2.221671,-15.27664 6.665039,-21.83594 4.443342,-6.60149 10.537091,-11.80657 18.281251,-15.61524 7.78642,-3.80851 16.33459,-5.7128 25.64453,-5.71289 3.89317,9e-5 7.82871,0.35979 11.80664,1.07911 4.02011,0.67716 7.95565,1.69279 11.80664,3.04687 3.89315,1.31193 7.55362,2.96232 10.98145,4.95117" />
    </g>
  </g>
</svg>
