<?xml version="1.0" encoding="UTF-8" standalone="no"?>
<!-- Created with Inkscape (http://www.inkscape.org/) -->

<svg
   xmlns:dc="http://purl.org/dc/elements/1.1/"
   xmlns:cc="http://creativecommons.org/ns#"
   xmlns:rdf="http://www.w3.org/1999/02/22-rdf-syntax-ns#"
   xmlns:svg="http://www.w3.org/2000/svg"
   xmlns="http://www.w3.org/2000/svg"
   xmlns:xlink="http://www.w3.org/1999/xlink"
   xmlns:sodipodi="http://sodipodi.sourceforge.net/DTD/sodipodi-0.dtd"
   xmlns:inkscape="http://www.inkscape.org/namespaces/inkscape"
   width="120"
   height="120"
   id="svg2"
   version="1.1"
   inkscape:version="0.48.5 r10040"
   inkscape:export-filename="/Users/aleos/Developer/ios/dayOfCycle/icons/TheDayOfCycle_settings@2x.png"
   inkscape:export-xdpi="43.5"
   inkscape:export-ydpi="43.5"
   sodipodi:docname="icon.svg">
  <defs
     id="defs4">
    <linearGradient
       id="linearGradient3755">
      <stop
         style="stop-color:#b30a00;stop-opacity:1;"
         offset="0"
         id="stop3757" />
      <stop
         style="stop-color:#dd5c54;stop-opacity:1;"
         offset="1"
         id="stop3759" />
    </linearGradient>
    <linearGradient
       inkscape:collect="always"
       xlink:href="#linearGradient3755"
       id="linearGradient3761"
       x1="0.17492752"
       y1="0.52478135"
       x2="0.17492752"
       y2="126.47243"
       gradientUnits="userSpaceOnUse" />
  </defs>
  <sodipodi:namedview
     id="base"
     pagecolor="#fde6e6"
     bordercolor="#666666"
     borderopacity="1.0"
     inkscape:pageopacity="1"
     inkscape:pageshadow="2"
     inkscape:zoom="1.078125"
     inkscape:cx="60"
     inkscape:cy="57.339488"
     inkscape:document-units="px"
     inkscape:current-layer="layer7"
     showgrid="false"
     showguides="true"
     inkscape:guide-bbox="true"
     inkscape:showpageshadow="false"
     showborder="false"
     inkscape:window-width="834"
     inkscape:window-height="972"
     inkscape:window-x="20"
     inkscape:window-y="20"
     inkscape:window-maximized="0">
    <sodipodi:guide
       orientation="1,0"
       position="-22.724638,97.15942"
       id="guide3026" />
  </sodipodi:namedview>
  <metadata
     id="metadata7">
    <rdf:RDF>
      <cc:Work
         rdf:about="">
        <dc:format>image/svg+xml</dc:format>
        <dc:type
           rdf:resource="http://purl.org/dc/dcmitype/StillImage" />
        <dc:title></dc:title>
      </cc:Work>
    </rdf:RDF>
  </metadata>
  <g
     inkscape:label="Background"
     inkscape:groupmode="layer"
     id="layer1"
     transform="translate(0,-932.36218)"
     sodipodi:insensitive="true"
     style="display:none" />
  <rect
     style="fill:url(#linearGradient3761);fill-opacity:1;stroke:none"
     id="rect3753"
     width="120"
     height="120"
     x="0"
     y="0" />
  <g
     inkscape:groupmode="layer"
     id="layer2"
     inkscape:label="Image"
     style="display:none"
     sodipodi:insensitive="true">
    <path
       style="fill:none;stroke:#ffffff;stroke-width:3;stroke-linecap:round;stroke-linejoin:round;stroke-miterlimit:4;stroke-opacity:1;stroke-dasharray:none"
       d="M 93.802935,63.64212 C 84.173789,40.819391 68.909642,47.764632 88.733981,11.96773 -2.5540019,41.764363 21.590707,102.78794 49.953272,107.58365 74.424308,111.72136 103.43208,86.464849 93.802935,63.64212 z"
       id="path3764"
       inkscape:connector-curvature="0"
       sodipodi:nodetypes="zcsz" />
    <path
       style="fill:none;stroke:#ffffff;stroke-width:1px;stroke-linecap:butt;stroke-linejoin:miter;stroke-opacity:1"
       d="m 33.696969,69.929903 c 11.237034,-0.82187 14.876613,-5.581131 19.591777,0.615552 -4.776912,7.097673 -11.559511,0.930954 -19.591777,-0.615552 z"
       id="path3829"
       inkscape:connector-curvature="0"
       sodipodi:nodetypes="ccc" />
    <path
       style="fill:#ffffff;stroke:none"
       d="M 39.272726,88.606061 C 44.577425,107.15896 61.214914,103.54409 81.696969,87.636363 50.360813,98.755654 42.712544,90.029787 39.272726,88.606061 z"
       id="path3831"
       inkscape:connector-curvature="0"
       sodipodi:nodetypes="ccc" />
    <path
       sodipodi:nodetypes="ccc"
       inkscape:connector-curvature="0"
       id="path3833"
       d="M 83.288746,69.929903 C 72.472681,71.513568 70.09046,73.93921 63.696969,70.545455 68.473881,77.643128 75.25648,71.476409 83.288746,69.929903 z"
       style="fill:none;stroke:#ffffff;stroke-width:1px;stroke-linecap:butt;stroke-linejoin:miter;stroke-opacity:1" />
  </g>
  <g
     inkscape:groupmode="layer"
     id="layer3"
     inkscape:label="28"
     sodipodi:insensitive="true"
     style="display:none">
    <g
       style="font-size:400px;font-style:normal;font-variant:normal;font-weight:normal;font-stretch:normal;text-align:start;line-height:125%;letter-spacing:0px;word-spacing:0px;writing-mode:lr-tb;text-anchor:start;fill:#ffffff;fill-opacity:1;stroke:none;font-family:Bodoni Ornaments;-inkscape-font-specification:Bodoni Ornaments"
       id="text3846"
       transform="matrix(0.26630265,0,0,0.26630265,240.65065,6.3642041)">
      <path
         d="m -663.74517,44.545936 c 2.18167,4.928 -2.06076,13.270277 -4.61546,15.825865 -4.31795,4.232155 -6.31346,5.705756 -9.58898,5.705582 -3.27569,1.74e-4 -5.15202,-1.674949 -8.57644,-5.705582 -3.27569,-4.030271 -4.50753,-10.762485 -3.93094,-15.825865 1.56106,-10.100556 2.44674,-16.494581 14.4808,-15.925904 12.03406,0.568678 9.1137,9.024767 12.23102,15.925904 z"
         id="path3867"
         inkscape:connector-curvature="0"
         sodipodi:nodetypes="ccccczc" />
      <g
         id="g3869"
         transform="matrix(0.95286376,0,0,1.3381772,-39.719971,-127.8048)">
        <path
           sodipodi:nodetypes="ccscccscccc"
           inkscape:connector-curvature="0"
           id="path3851"
           d="m -675.28858,298.30733 c 4.52033,8.19369 1.56505,11.8005 -0.18579,17.29009 -2.60424,2.63113 -5.56298,22.73777 -5.69423,26.11789 -0.59799,15.3999 4.73074,26.80882 1.21174,37.91054 -2.40016,7.99995 -4.66682,11.99994 -6.8,12 l -0.4,0 c -2.66682,-3.46672 1.90841,-10.99638 -9.6e-4,-22.84645 -2.19322,-13.6116 -10.23582,-42.19459 -2.72417,-57.48147 -0.35929,-4.53964 -2.33566,-8.60051 -4.05912,-18.59356 -2.21236,-11.7504 -4.70704,-22.44189 7.4429,-22.44943 16.26456,0.27303 11.75151,11.53613 11.20963,28.05239 z" />
        <path
           sodipodi:nodetypes="sccscccscsczs"
           inkscape:connector-curvature="0"
           id="path3857"
           d="m -639.37024,284.10053 c 6.79961,9.86356 26.48175,21.18702 25.18407,27.79986 -0.0969,9.55878 -5.82156,11.36738 -10.0503,15.48874 -3.56457,1.13227 -17.79292,19.56643 -19.57183,22.55631 -8.10478,13.62198 -8.18409,14.962 -13.46504,26.82372 -6.03069,6.07831 -12.37491,14.91079 -14.23339,13.89195 l -0.34849,-0.19106 c -0.61615,-4.40456 5.81931,-10.7052 9.99152,-22.31895 4.79238,-13.34015 17.48589,-43.93231 31.55828,-54.14995 -4.7115,-4.42544 -18.13031,-15.31377 -22.06122,-20.14605 -4.46261,-5.48593 -9.1435,-6.19009 -8.94396,-13.81121 0,0 -0.42538,-6.16414 7.46193,-7.62668 7.88732,-1.46253 7.61094,1.72127 14.47843,11.68332 z" />
      </g>
      <g
         id="g3873"
         transform="matrix(0.50641669,0,0,0.50641669,-331.87152,105.37122)">
        <path
           id="path3865"
           d="m -538.51738,208.52991 c -3e-4,4.53345 -1.86696,9.73345 -5.6,15.6 -3.46696,5.86677 -6.93362,8.8001 -10.4,8.8 -5.60028,1e-4 -9.86694,-3.1999 -12.8,-9.6 -2.40027,-5.33322 -3.86693,-12.13321 -4.4,-20.4 -0.5336,-9.86653 -1.06693,-15.99985 -1.6,-18.4 -4.00026,-16.79983 -21.33357,-36.93315 -52,-60.4 -1.33354,-2.13312 -2.00021,-3.99979 -2,-5.6 -2.1e-4,-2.66645 1.06646,-3.99978 3.2,-4 13.59977,2.2e-4 29.59976,8.93354 48,26.8 25.06638,24.26683 37.5997,46.66681 37.6,67.2"
           inkscape:connector-curvature="0" />
        <path
           id="path3863"
           d="m -586.51738,222.52991 c -2.5e-4,14.66676 -4.26691,22.00009 -12.8,22 -7.20023,9e-5 -13.46689,-4.66657 -18.8,-14 -1.60022,-2.93323 -3.20021,-8.93322 -4.8,-18 -1.86688,-10.66654 -4.00021,-19.46653 -6.4,-26.4 -5.06687,-14.39984 -11.46686,-28.13316 -19.2,-41.2 -6.40018,-10.3998 -9.60018,-16.26646 -9.6,-17.6 -1.8e-4,-3.19979 2.93315,-4.79979 8.8,-4.8 16.7998,2.1e-4 31.46645,11.6002 44,34.8 12.53309,22.93349 18.79975,44.6668 18.8,65.2"
           inkscape:connector-curvature="0" />
        <path
           id="path3861"
           d="m -704.91738,126.12991 c -1.3e-4,0.80021 -0.2668,1.86687 -0.8,3.2 -3.46679,8.8002 -6.93346,17.60019 -10.4,26.4 -3.46678,9.60017 -5.20011,18.13349 -5.2,25.6 -1.1e-4,2.13348 0.13322,5.73348 0.4,10.8 0.26655,5.0668 0.39988,9.20013 0.4,12.4 -1.2e-4,12.53345 -2.66678,22.80011 -8,30.8 -4.8001,6.93342 -10.0001,10.40009 -15.6,10.4 -10.93341,9e-5 -16.40008,-17.33323 -16.4,-52 -8e-5,-11.19985 4.26659,-25.73317 12.8,-43.6 10.13323,-21.33313 18.79989,-31.99978 26,-32 6.13321,2.2e-4 11.46654,1.60021 16,4.8 0.5332,1.06688 0.79987,2.13354 0.8,3.2"
           inkscape:connector-curvature="0" />
        <path
           id="path3859"
           d="m -645.71738,209.72991 c -1.9e-4,11.20011 -2.26685,14.65636 -6.8,22.38959 -3.20018,4.53342 -6.40018,14.94383 -28.2,12.61041 -19.93347,-9.53324 -21.6668,-15.93323 -23.8,-25.8 -2.6668,-12.53321 -4.00013,-23.99986 -4,-34.4 -1.3e-4,-17.0665 3.3332,-31.73315 10,-44 6.13319,-11.46646 13.06652,-17.19979 20.8,-17.2 6.39984,2.1e-4 11.59983,4.40021 15.6,13.2 10.93315,23.46684 16.39981,47.86682 16.4,73.2"
           inkscape:connector-curvature="0" />
        <path
           id="path3853"
           d="m -738.91738,114.92991 c -10e-5,2.40022 -4.00009,6.80021 -12,13.2 -9.33341,7.73353 -15.86674,15.86686 -19.6,24.4 -3.7334,8.26684 -5.60006,17.86683 -5.6,28.8 l 0,10.8 c -6e-5,27.73345 -5.46672,41.6001 -16.4,41.6 -7.4667,1e-4 -12.40003,-8.79989 -14.8,-26.4 3.46663,-27.19985 11.33329,-49.46649 23.6,-66.8 11.73327,-16.26646 25.59992,-25.73311 41.6,-28.4 l 3.2,1.6 0,1.2"
           inkscape:connector-curvature="0" />
      </g>
      <path
         inkscape:connector-curvature="0"
         id="path3880"
         d="m -668.88209,133.98712 c 6.06068,-7.26413 7.4174,-21.81943 7.41746,-22.7419 -1.4e-4,-6.71236 12.02313,-19.269905 6.66531,-27.100244 -5.35809,-7.831004 -22.32208,-6.730867 -26.38662,-6.730546 -4.06477,-3.21e-4 -18.20549,0.719289 -22.4548,8.177406 -4.06475,7.457449 6.6094,15.159464 6.6095,24.109154 -10e-5,6.71165 -0.0439,17.30738 5.31413,24.76554 -0.55438,2.60985 -10.90149,10.26989 -9.01705,19.24719 16.83339,10.35618 24.68728,9.19983 40.43217,-1.83545 0.77468,-5.13283 -5.18047,-12.79041 -8.5801,-17.89115 z"
         sodipodi:nodetypes="cccccccccc" />
      <path
         style="fill:#ffffff;fill-opacity:1;stroke:none"
         d="m -711.46635,84.877598 c 4.04134,14.570282 -9.26109,15.017082 -21.99612,24.639752 -4.73255,3.57595 -8.14757,7.45104 -11.88888,12.33956 2.06117,4.88487 7.46764,16.66337 9.81776,19.56622 2.65098,3.3189 2.23941,4.19913 4.07219,6.29654 4.00283,4.58071 7.25315,9.44769 2.54838,16.09575 -9.6222,13.91543 -4.06922,-1.35292 -4.83282,-5.37346 -2.55508,-11.08359 -12.89581,-22.51795 -18.59722,-29.61748 -2.34412,-2.84633 -4.97379,-5.96741 -5.45123,-10.84239 7.21927,-5.50335 11.429,-10.25212 15.49906,-14.74763 4.07007,-4.49551 10.43643,-12.42144 19.93895,-16.338 4.22826,-1.25072 8.65497,-10.076588 10.88993,-2.018862 z"
         id="path3882"
         inkscape:connector-curvature="0"
         sodipodi:nodetypes="ssccscccczcs" />
      <path
         sodipodi:nodetypes="ssccscccczcs"
         inkscape:connector-curvature="0"
         id="path3907"
         d="m -645.26552,91.232187 c -4.04134,-14.57028 9.26109,-15.01708 21.99612,-24.639755 4.73255,-3.57595 8.14757,-7.45104 11.88888,-12.33956 -2.06117,-4.884869 -7.46764,-16.663368 -9.81776,-19.566217 -2.65098,-3.3189 -2.23941,-4.19913 -4.07219,-6.296541 -4.00283,-4.58071 -7.25315,-9.44769 -2.54838,-16.095751 9.6222,-13.9154312 4.06922,1.352921 4.83282,5.373461 2.55508,11.08359 12.89581,22.51795 18.59722,29.617479 2.34412,2.84633 4.97379,5.967409 5.45123,10.842389 -7.21927,5.50335 -11.429,10.252125 -15.49906,14.747635 -4.07007,4.49551 -10.43643,12.42144 -19.93895,16.338 -4.22826,1.25072 -8.65497,10.07659 -10.88993,2.01886 z"
         style="fill:#ffffff;fill-opacity:1;stroke:none" />
    </g>
  </g>
  <g
     inkscape:groupmode="layer"
     id="layer5"
     inkscape:label="Flower1"
     style="display:none"
     sodipodi:insensitive="true">
    <g
       style="font-size:90.86624146px;font-style:normal;font-variant:normal;font-weight:normal;font-stretch:normal;text-align:start;line-height:125%;letter-spacing:0px;word-spacing:0px;writing-mode:lr-tb;text-anchor:start;fill:#ffffff;fill-opacity:1;stroke:none;font-family:Bodoni Ornaments;-inkscape-font-specification:Bodoni Ornaments"
       id="text3842"
       transform="translate(2.3859415,-1.5e-6)">
      <path
         d="m 102.95631,54.638892 c -1e-4,0.969271 -0.39385,1.877933 -1.18126,2.725987 -0.72703,0.787537 -1.45396,1.18129 -2.180794,1.181261 -0.727022,2.9e-5 -1.544817,-0.333147 -2.453389,-0.999528 -0.908751,-0.7269 -1.393371,-1.544695 -1.45386,-2.453389 1.090306,-1.635559 1.635503,-2.665375 1.635593,-3.089452 -9e-5,-1.635556 -1.756836,-2.453351 -5.270242,-2.453389 -5.149167,3.8e-5 -8.39006,1.756784 -9.722688,5.270242 2.907642,1.514469 4.3615,3.543813 4.361579,6.088039 -7.9e-5,1.211575 -0.45441,2.241391 -1.362993,3.089452 -0.90874,0.848107 -2.029422,1.272149 -3.362051,1.272127 -1.272201,2.2e-5 -2.483749,-0.484597 -3.63465,-1.45386 -1.090465,-0.969215 -1.635661,-2.120187 -1.635592,-3.452917 -6.9e-5,-0.484593 0.06051,-1.181233 0.181732,-2.089923 0.181663,-0.96921 0.272529,-1.665851 0.272599,-2.089924 -2.726054,0.181763 -4.937131,1.363023 -6.633236,3.543783 -1.635653,2.180815 -2.453449,5.027955 -2.453388,8.541427 -6.1e-5,1.696187 0.272538,2.544271 0.817796,2.544255 0.181671,1.6e-5 0.545136,-0.09085 1.090395,-0.272599 0.545134,-0.181716 0.969176,-0.272582 1.272127,-0.272599 1.272063,1.7e-5 2.453323,0.575503 3.543784,1.726459 1.090326,1.090409 1.635523,2.332246 1.635592,3.725516 -6.9e-5,2.483686 -1.302484,3.81639 -3.907248,3.998115 -1.151037,-0.484612 -1.7871,-0.726922 -1.908191,-0.72693 -0.06064,8e-6 -0.212085,0.06059 -0.454332,0.181732 -0.181795,0.121163 -0.333238,0.18174 -0.454331,0.181733 -0.726991,7e-6 -1.484209,-0.605767 -2.271656,-1.817325 -1.029876,0.545206 -1.544784,1.453868 -1.544726,2.725987 -5.8e-5,1.393288 0.333118,2.332238 0.999529,2.816853 0.121095,0.121159 1.090334,0.57549 2.907719,1.362994 1.272064,0.5452 2.392747,2.120213 3.362051,4.725045 l -0.999528,0.999528 c -0.545262,-0.06058 -1.120747,-0.393756 -1.726459,-0.999528 -0.54526,-0.545199 -0.908724,-0.817798 -1.090395,-0.817797 -0.726991,-10e-7 -1.393343,0.787506 -1.999057,2.362523 -1.272186,3.2106 -2.059693,5.118789 -2.362522,5.724573 -0.787564,1.332694 -1.817381,1.999046 -3.089453,1.999057 -0.666406,-1.1e-5 -1.393335,-0.151455 -2.180789,-0.454331 -0.726982,-0.24232 -1.120735,-0.363475 -1.181261,-0.363465 -0.484671,-1e-5 -0.726981,0.69663 -0.72693,2.089924 0.484569,1.272112 0.726878,2.029332 0.72693,2.271652 -5.2e-5,0.42403 -0.212073,0.87836 -0.636064,1.363 -0.363515,0.4846 -0.696691,0.72691 -0.999529,0.72693 -0.424091,-2e-5 -0.848133,-0.24233 -1.272127,-0.72693 -0.363513,-0.42406 -0.545245,-0.87839 -0.545198,-1.363 -4.7e-5,0.0606 0.363417,-1.27214 1.090395,-3.998111 l -0.454331,-0.545197 c -1.272174,0.424031 -2.211125,0.636052 -2.816853,0.636063 -2.241411,-1.1e-5 -3.786135,-1.302425 -4.634179,-3.907248 -0.06062,-0.121162 -0.363505,-1.514443 -0.908662,-4.179847 -0.24235,-1.090397 -0.696681,-1.635594 -1.362994,-1.635593 -0.484658,-10e-7 -0.999566,0.363464 -1.544726,1.090395 -0.484656,0.726927 -0.848121,1.090392 -1.090395,1.090395 -0.242345,-3e-6 -0.60581,-0.363468 -1.090395,-1.090395 0.06054,-1.514438 0.484585,-2.695698 1.272128,-3.543783 0.666315,-0.605773 1.817287,-1.241836 3.452917,-1.908191 0.969199,-0.363462 1.514396,-0.575483 1.635592,-0.636064 0.424001,-0.242306 0.666311,-0.575482 0.72693,-0.999528 -0.605816,-3.331754 -1.302457,-4.997634 -2.089923,-4.997644 -4e-5,1e-5 -0.545237,0.454341 -1.635593,1.362994 -1.090432,0.90867 -2.180826,1.363001 -3.271184,1.362994 -1.393316,7e-6 -2.544288,-0.454324 -3.452918,-1.362994 -0.908693,-0.969231 -1.363023,-2.180779 -1.362993,-3.63465 -3e-5,-2.847127 1.847581,-4.270697 5.54284,-4.270713 0.545162,1.6e-5 1.120647,0.181749 1.726459,0.545197 0.666315,0.363481 1.060068,0.545213 1.181261,0.545198 0.605736,1.5e-5 0.908623,-0.757203 0.908663,-2.271656 -4e-5,-2.786545 -1.120722,-5.603395 -3.362051,-8.450561 -2.241401,-2.847113 -4.694787,-4.270683 -7.360166,-4.270713 -0.605803,3e-5 -1.060134,0.333206 -1.362993,0.999529 0.787479,2.120239 1.181232,3.059189 1.181261,2.816853 -2.9e-5,1.211575 -0.484648,2.392835 -1.45386,3.543784 -0.969266,1.150994 -1.999083,1.726479 -3.089452,1.726458 -1.272151,2.1e-5 -2.45341,-0.545176 -3.543784,-1.635592 -1.029837,-1.090371 -1.544745,-2.30192 -1.544726,-3.63465 -1.9e-5,-1.635564 0.72691,-3.059134 2.18079,-4.270713 1.453837,-1.211518 2.180766,-1.87787 2.18079,-1.999058 -2.4e-5,-0.666319 -1.060129,-1.605269 -3.180319,-2.816853 -2.12023,-1.272091 -3.876976,-1.908154 -5.270242,-1.908191 -3.452928,3.7e-5 -5.179385,0.908699 -5.179376,2.725987 -9e-6,0.302922 0.03028,0.757253 0.09087,1.362994 0.121145,0.605807 0.181722,1.090427 0.181732,1.45386 -10e-6,1.21158 -0.545207,1.817355 -1.635592,1.817324 -0.969247,3.1e-5 -1.787043,-0.424012 -2.453389,-1.272127 -0.666357,-0.848053 -0.999533,-1.908158 -0.999528,-3.180318 -5e-6,-1.574979 0.757213,-2.96826 2.271656,-4.179848 1.514428,-1.211509 3.240885,-1.817284 5.179375,-1.817324 4.119254,4e-5 9.026026,2.514004 14.720332,7.541898 0.30286,0.484652 0.75719,0.726962 1.362993,0.72693 -2.8e-5,3.2e-5 0.242282,-0.03026 0.72693,-0.09087 0.48459,3.3e-5 0.938921,3.3e-5 1.362994,0 2.362489,3.3e-5 4.755298,1.48418 7.178433,4.452446 2.786524,3.392364 4.179805,7.26932 4.179847,11.630879 -4.2e-5,0.605791 -0.151485,1.363009 -0.454331,2.271656 -0.242351,0.908676 -0.363506,1.453873 -0.363465,1.635593 -4.1e-5,0.06059 0.545156,0.878385 1.635592,2.453388 1.150929,1.575023 1.726414,2.998593 1.726459,4.270713 -4.5e-5,0.484625 -0.06062,1.029822 -0.181733,1.635593 -0.121199,0.545201 -0.181776,0.878377 -0.181732,0.999528 -4.4e-5,0.848087 0.545153,1.272129 1.635592,1.272128 1.211503,10e-7 1.817277,-1.484146 1.817325,-4.452446 -4.8e-5,-0.121149 0.03024,-0.33317 0.09087,-0.636064 -4.7e-5,-0.363458 -4.7e-5,-0.666345 0,-0.908662 -4.7e-5,-2.241358 -0.393801,-3.967814 -1.181261,-5.179376 -0.424088,-0.605761 -1.211595,-1.241824 -2.362522,-1.908191 -0.787551,-0.484605 -1.181304,-1.029802 -1.181261,-1.635592 -4.3e-5,-0.424026 0.181689,-0.817779 0.545197,-1.181261 0.423999,-0.363447 0.848041,-0.54518 1.272127,-0.545198 l 1.999058,0.09087 c 0.423995,1.8e-5 0.636016,-0.27258 0.636063,-0.817796 l 0,-0.181732 c -0.666399,-2.907698 -1.57506,-5.239929 -2.725987,-6.996701 -0.969283,-1.574987 -1.908234,-2.362494 -2.816853,-2.362522 -0.121197,2.8e-5 -0.242352,0.03032 -0.363465,0.09087 -0.121197,0.06061 -0.212063,0.09089 -0.272599,0.09087 -0.242351,2.9e-5 -0.878414,-0.636035 -1.908191,-1.908191 -1.272165,-1.514405 -2.392848,-3.240862 -3.362051,-5.179376 0.363429,-0.545161 0.666316,-0.81776 0.908662,-0.817796 0.605738,3.6e-5 1.27209,0.272635 1.999058,0.817796 0.787468,0.545233 1.272087,0.817831 1.45386,0.817797 0.121114,3.4e-5 0.363424,-0.121121 0.726929,-0.363465 0.363424,-0.242275 0.666311,-0.36343 0.908663,-0.363465 0.484578,3.5e-5 1.090352,0.454366 1.817325,1.362993 0.726885,0.848118 1.484103,1.423604 2.271656,1.726459 l 0.09087,-0.545198 c -0.60582,-1.696135 -0.908707,-2.574508 -0.908662,-2.635121 l 0,-0.999528 0.363465,0 c 0.302841,3.6e-5 0.696595,0.06061 1.181261,0.181732 l 0.09087,-0.999528 0,-0.363465 c -4.7e-5,-0.605737 -0.181779,-1.665842 -0.545198,-3.180319 -0.36351,-1.514395 -0.545243,-2.695655 -0.545197,-3.543783 l 0,-0.545198 c -4.6e-5,-0.363419 -0.302933,-0.908616 -0.908662,-1.635592 -0.787552,-1.02977 -1.363037,-1.877854 -1.726459,-2.544255 -1.090437,1.575062 -1.877943,2.362569 -2.362522,2.362522 -0.424083,4.7e-5 -0.999569,-0.363418 -1.726459,-1.090394 -0.726968,1.151019 -1.968805,1.968814 -3.725516,2.453388 0.12112,0.787552 0.302852,1.575059 0.545198,2.362522 0.242274,0.78755 0.363429,1.211592 0.363465,1.272128 -3.6e-5,0.484661 -0.212057,0.787548 -0.636064,0.908662 -0.969274,-0.424001 -1.908225,-1.453818 -2.816853,-3.089452 -0.848117,-1.635547 -1.272159,-2.96825 -1.272128,-3.998115 -3.1e-5,-0.605726 0.4543,-1.241789 1.362994,-1.908191 1.393248,-0.969189 2.30191,-1.696118 2.725987,-2.18079 l -0.36348,-0.181741 c -0.908697,0.363517 -1.968802,0.666404 -3.180318,0.908662 -1.575046,-0.42399 -2.574573,-0.878321 -2.998586,-1.362993 l 0.181732,-0.817796 1.999057,0 c 0.363434,5.3e-5 0.878342,-0.363412 1.544727,-1.090395 0.908628,-0.908607 1.756712,-1.605248 2.544254,-2.089924 -0.363499,-0.242253 -0.908696,-0.363408 -1.635592,-0.363465 -0.726963,5.7e-5 -1.27216,-0.211964 -1.635592,-0.636063 -0.06061,-0.121098 -0.0909,-0.242253 -0.09087,-0.363465 -3.1e-5,-0.363407 0.272567,-0.726872 0.817797,-1.090395 0.787474,-0.605716 1.33267,-1.120624 1.635592,-1.544726 -3.4e-5,6e-5 0.09083,-0.545137 0.272599,-1.635593 1.332669,-1.211486 2.453351,-1.817261 3.362051,-1.817325 0.969201,6.4e-5 3.755763,1.029881 8.359694,3.089453 -4.7e-5,-0.06052 0.03024,-0.151383 0.09087,-0.272599 -4.6e-5,-0.121094 -4.6e-5,-0.242249 0,-0.363465 -4.6e-5,-0.969178 -0.363511,-2.33217 -1.090395,-4.088981 -0.726974,-1.75668 -1.090439,-2.816785 -1.090395,-3.180318 -4.4e-5,-0.908593 0.333132,-1.362924 0.999529,-1.362994 0.545152,7e-5 1.484102,1.908259 2.816853,5.724573 0.181685,-1.696104 0.363417,-3.392272 0.545198,-5.088509 0.121106,-1.150902 0.393705,-1.726388 0.817796,-1.726459 0.908612,7.1e-5 1.362943,0.757289 1.362994,2.271656 -5.1e-5,0.06065 -0.03034,0.484689 -0.09087,1.272127 -0.121205,1.029885 -0.212071,1.999123 -0.272598,2.90772 -5.1e-5,0.181797 0.09081,0.514973 0.272598,0.999529 0.605724,-0.908598 1.302365,-2.453322 2.089924,-4.634178 0.484567,-1.393213 0.999475,-2.089854 1.544726,-2.089924 0.423988,7e-5 0.666298,0.575556 0.72693,1.726459 -1.393336,3.877024 -2.089977,6.209255 -2.089924,6.9967 -5.3e-5,0.242372 0.09081,0.363527 0.272599,0.363465 l 0.09087,0 c 1.877848,-1.696107 3.998058,-2.544191 6.360637,-2.544255 1.029757,6.4e-5 2.089862,0.272663 3.180319,0.817797 1.090331,0.54526 1.665816,1.181323 1.726458,1.908191 0.181668,1.272187 0.817731,2.392869 1.908191,3.362051 1.090328,0.969296 1.635525,1.81738 1.635593,2.544254 -6.8e-5,0.969295 -0.42411,1.453914 -1.272128,1.45386 0.181666,5.4e-5 -0.302954,-0.211967 -1.45386,-0.636064 l 0,0.636064 c -6.5e-5,1.211603 0.848019,1.817377 2.544255,1.817325 0.181665,5.2e-5 0.938883,-0.18168 2.271656,-0.545197 l 0.999529,-0.272599 c 0.423971,5.3e-5 0.635992,0.181785 0.636064,0.545197 -7.2e-5,1.090446 -0.9996,1.968819 -2.998586,2.635121 -0.545266,0.121205 -1.15104,0.181782 -1.817325,0.181733 -0.484687,4.9e-5 -1.211616,-0.24226 -2.18079,-0.72693 -1.211613,-0.605724 -2.150564,-0.999478 -2.816853,-1.181261 3.331696,2.423148 4.997576,5.088556 4.997643,7.996229 -6.7e-5,0.363508 -0.424109,0.969282 -1.272128,1.817325 -1.090459,1.029858 -2.453451,1.938519 -4.08898,2.725987 l -0.272599,0 c -0.242371,3.9e-5 -0.363526,-0.151405 -0.363465,-0.454331 -6.1e-5,-0.121116 0.21196,-0.575446 0.636064,-1.362994 0.42398,-0.848043 0.636001,-1.574972 0.636063,-2.18079 -6.2e-5,-0.121112 -1.060167,-1.150928 -3.180318,-3.089452 -0.484679,0.121201 -0.908721,0.181778 -1.272128,0.181733 -0.969296,4.5e-5 -1.726514,-0.938905 -2.271656,-2.816854 -0.666407,-2.301894 -1.635646,-3.876907 -2.907719,-4.725044 0.121102,1.090447 0.454278,2.241418 0.999528,3.452917 0.605721,1.211598 0.908608,1.908239 0.908663,2.089923 -5.5e-5,0.545245 -0.454386,1.393329 -1.362994,2.544255 -0.848137,1.090439 -1.272179,1.968812 -1.272127,2.635121 l 0,0.72693 c -5.2e-5,0.605816 -0.363517,1.605344 -1.090395,2.998586 -0.666403,0.302926 -1.090445,0.969278 -1.272128,1.999057 -0.06063,0.484657 -0.09092,1.908226 -0.09087,4.270714 l 0,0.181732 c -4.9e-5,0.242342 0.03024,0.454363 0.09087,0.636064 2.241316,-2.241333 3.907195,-3.392305 4.997644,-3.452917 0.848029,0.242345 1.453804,0.3635 1.817325,0.363465 0.423985,3.5e-5 0.969182,-0.393719 1.635592,-1.181262 0.726871,-0.78747 1.362934,-1.181223 1.908191,-1.181261 0.121095,3.8e-5 0.363405,0.06062 0.72693,0.181733 0.121094,1.453895 0.181672,2.089958 0.181732,1.908191 -6e-5,1.696203 -2.302003,3.66497 -6.905834,5.906306 -1.696222,0.848113 -2.998637,3.028901 -3.907248,6.542369 l 0.09087,0.817796 c 0.848034,-1.817301 1.696118,-2.725962 2.544255,-2.725987 0.302834,2.5e-5 0.696588,0.212046 1.181261,0.636064 -0.545251,2.362544 -1.181314,4.301021 -1.908191,5.815439 -0.545249,1.211567 -0.817848,1.787053 -0.817796,1.726459 l 0,1.45386 c 0.484568,-0.302873 0.787455,-0.454316 0.908662,-0.454332 0.545145,1.6e-5 1.029764,0.938966 1.45386,2.816854 -0.484673,0.848096 -0.939004,1.696181 -1.362994,2.544255 -0.605826,1.272136 -0.908713,2.574551 -0.908662,3.907248 l 0,0.908662 c -5.1e-5,0.726935 0.484568,1.272132 1.45386,1.635593 1.635538,-0.06057 2.635065,-0.908658 2.998586,-2.544255 0.242254,-1.393275 0.484563,-2.786556 0.72693,-4.179847 0.242253,-0.545187 0.696584,-1.150961 1.362993,-1.817325 0.726872,-0.66634 1.090336,-1.12067 1.090395,-1.362994 -5.9e-5,-0.363451 -0.181791,-1.150957 -0.545197,-2.362522 -0.302946,-1.27211 -0.454389,-2.332215 -0.454332,-3.180318 -5.7e-5,-3.755782 1.272069,-7.148118 3.816383,-10.177019 2.362458,-2.786533 4.876421,-4.179814 7.541898,-4.179848 0.121085,3.4e-5 0.333106,3.4e-5 0.636063,0 0.363395,0.06061 0.666282,0.0909 0.908663,0.09087 0.484548,3.3e-5 0.848013,-0.03026 1.090395,-0.09087 4.42208,-4.240386 8.844233,-6.360597 13.266471,-6.360636 2.544167,3.9e-5 4.906687,0.787546 7.087567,2.362522 2.241278,1.575051 3.361958,3.210641 3.362058,4.906777 M 68.518001,30.286739 c -0.666413,-1.090337 -1.544786,-2.059576 -2.635121,-2.90772 -0.848142,-0.605714 -1.484205,-0.908601 -1.908191,-0.908662 -1.393337,6.1e-5 -3.028928,0.817856 -4.906777,2.453389 l 1.181261,-0.09087 c 0.242257,5.9e-5 0.63601,-0.09081 1.181261,-0.272598 0.545143,-0.242252 0.969185,-0.363406 1.272128,-0.363465 0.302832,5.9e-5 2.241309,0.696699 5.815439,2.089923 m 15.447261,30.076726 c -7.6e-5,-0.848057 -0.363541,-1.635564 -1.090395,-2.362522 -0.727004,-0.7269 -1.393356,-1.090365 -1.999057,-1.090395 -0.302961,3e-5 -0.696714,0.333206 -1.181261,0.999529 -0.424114,0.605803 -0.636135,1.151 -0.636064,1.635592 -7.1e-5,1.575041 0.514837,2.695723 1.544726,3.362051 l 0.363465,0 c 1.998982,2.4e-5 2.99851,-0.84806 2.998586,-2.544255 M 54.888065,28.923746 c -0.787554,-1.090336 -2.120258,-1.635533 -3.998115,-1.635593 -3.331802,6e-5 -5.542878,1.787094 -6.633235,5.361108 1.272089,-0.908607 2.544215,-1.786979 3.816382,-2.635121 1.332663,-0.848026 2.635078,-1.272068 3.907248,-1.272127 0.181688,5.9e-5 0.575441,0.03035 1.181261,0.09087 0.666306,0.06064 1.241792,0.09093 1.726459,0.09087 m -0.545198,3.543783 c -1.635637,0.424097 -2.816897,2.150554 -3.543783,5.179376 1.029773,-1.635541 2.211033,-3.361998 3.543783,-5.179376 m 19.536242,42.616267 c -6.6e-5,-0.363452 -0.302953,-0.817783 -0.908662,-1.362993 -0.545262,-0.605761 -1.029882,-0.908648 -1.45386,-0.908663 -0.484683,1.5e-5 -0.939014,0.242324 -1.362994,0.72693 -0.424104,0.484633 -0.636125,1.02983 -0.636063,1.635592 -6.2e-5,0.484632 0.242247,0.969251 0.72693,1.45386 0.484556,0.48463 0.969176,0.72694 1.45386,0.72693 0.484555,1e-5 0.969174,-0.2423 1.453859,-0.72693 0.484554,-0.545186 0.726864,-1.060094 0.72693,-1.544726 M 62.157364,90.258459 C 61.915,89.652681 61.490958,88.834886 60.885237,87.80507 l 0,0.999529 c -5.4e-5,0.66635 0.242256,1.423568 0.72693,2.271656 l 0.545197,-0.817796 M 33.443632,61.45386 c -2.6e-5,-1.029791 -0.181758,-1.938452 -0.545198,-2.725987 -0.36349,-0.848056 -0.757243,-1.272098 -1.181261,-1.272128 -0.545221,3e-5 -1.150995,0.333206 -1.817325,0.999529 -0.605796,0.605803 -0.908683,1.211577 -0.908662,1.817325 -2.1e-5,0.848111 0.272577,1.605329 0.817796,2.271656 0.545175,0.605799 1.181238,0.908686 1.908191,0.908662 1.150947,2.4e-5 1.726433,-0.666328 1.726459,-1.999057 M 45.165377,74.538599 C 44.1961,73.690527 43.590326,73.266485 43.348052,73.266471 l -0.999528,0 c -1.332739,1.4e-5 -1.999091,0.757232 -1.999058,2.271656 -3.3e-5,1.45387 0.726897,2.1808 2.18079,2.18079 1.332669,10e-6 2.211041,-1.060095 2.635121,-3.180318 m 16.810255,18.264114 c -5.5e-5,-0.242315 -0.09092,-0.514914 -0.272599,-0.817796 -1.211603,0.848079 -2.120264,1.575009 -2.725987,2.18079 -0.181784,0.30288 -0.27265,0.605767 -0.272599,0.908662 -5.1e-5,0.848077 0.393702,1.272119 1.181261,1.272128 0.363412,-9e-6 0.787454,-0.424051 1.272128,-1.272128 0.545143,-0.787514 0.817741,-1.544732 0.817796,-2.271656 m -6.360637,2.089924 0,-0.908663 c -0.969287,-1.999062 -2.029392,-3.392343 -3.180319,-4.179847 -0.121199,0.605772 -0.181777,1.12068 -0.181732,1.544726 -4.5e-5,0.545193 0.03024,0.969235 0.09087,1.272128 0.908617,1.877895 1.696123,2.816845 2.362522,2.816853 0.363418,-8e-6 0.666305,-0.18174 0.908663,-0.545197"
         id="path3959"
         inkscape:connector-curvature="0" />
    </g>
  </g>
  <g
     inkscape:groupmode="layer"
     id="layer6"
     inkscape:label="Flower2"
     style="display:none"
     sodipodi:insensitive="true">
    <g
       style="font-size:100.13656616px;font-style:normal;font-variant:normal;font-weight:normal;font-stretch:normal;text-align:start;line-height:125%;letter-spacing:0px;word-spacing:0px;writing-mode:lr-tb;text-anchor:start;fill:#ffffff;fill-opacity:1;stroke:none;display:inline;font-family:Bodoni Ornaments;-inkscape-font-specification:Bodoni Ornaments"
       id="text3928"
       transform="translate(2.7709675,2.2111215)">
      <path
         d="m 96.933181,66.709148 c -8.4e-5,2.803844 -1.235101,5.507529 -3.705053,8.111062 -2.470114,2.536805 -5.073662,3.805201 -7.810652,3.805189 -2.670379,1.2e-5 -4.005532,-0.467292 -4.005462,-1.401912 -7e-5,-0.333775 0.500613,-0.734321 1.502048,-1.201639 0.400475,0.13353 0.867779,0.200288 1.401912,0.200273 2.670234,1.5e-5 4.939994,-0.867835 6.809287,-2.60355 1.869135,-1.80244 2.803742,-4.205715 2.803823,-7.209833 -8.1e-5,-0.200249 -0.06684,-0.567416 -0.200273,-1.101502 l -0.400546,-0.801093 c -1.001446,5.607668 -3.204448,8.411489 -6.609013,8.411472 -1.468743,1.7e-5 -2.803896,-0.300392 -4.005463,-0.901229 -1.134951,-0.600801 -1.702391,-1.268377 -1.702322,-2.002732 -6.9e-5,-0.06674 0.03331,-0.53404 0.100137,-1.401912 -6.9e-5,-0.867827 -6.9e-5,-1.702298 0,-2.503414 -6.9e-5,-2.13622 -0.667646,-3.83854 -2.002731,-5.106965 -1.33522,-1.268366 -2.803888,-1.902563 -4.406009,-1.902594 -1.068185,3.1e-5 -2.102929,0.133546 -3.104234,0.400546 -1.335212,0.534092 -2.53685,1.43532 -3.604916,2.703687 -1.068178,1.268424 -2.102922,2.536819 -3.104234,3.80519 5.87462,4.673059 8.811956,9.813398 8.812018,15.421031 -6.2e-5,3.271133 -0.934669,6.275227 -2.803824,9.012291 -1.602242,2.26976 -2.937395,3.40464 -4.005462,3.404643 -1.26845,-3e-6 -1.902648,-0.66758 -1.902595,-2.002731 -5.3e-5,-0.200275 0.03333,-0.634199 0.100136,-1.301776 0.133463,-0.667576 0.20022,-1.268395 0.200273,-1.802458 -5.3e-5,-2.203 -0.834523,-3.972078 -2.503414,-5.307238 -1.668991,-1.401903 -3.871994,-2.102859 -6.609013,-2.102868 -1.335197,9e-6 -2.67035,0.634207 -4.005463,1.902595 -1.535466,1.468675 -2.303178,3.237753 -2.303141,5.307238 -3.7e-5,0.734336 0.100099,1.635564 0.30041,2.703687 0.200235,1.134879 0.300371,1.902592 0.30041,2.303141 -3.9e-5,1.068119 -0.500721,1.602181 -1.502049,1.602185 -0.267067,-4e-6 -1.001401,-0.433929 -2.203004,-1.301775 -1.201673,-0.867853 -2.13628,-1.368535 -2.803824,-1.502048 -1.134912,-0.200275 -2.236413,-1.301776 -3.304507,-3.304507 -1.068151,-2.069486 -1.602212,-4.372624 -1.602185,-6.909423 -2.7e-5,-4.339239 1.568778,-8.244561 4.706419,-11.715978 0.467272,-0.534042 1.502015,-1.43527 3.104233,-2.703688 1.00133,-0.801069 1.502013,-1.468645 1.502049,-2.002731 -3.6e-5,-1.00134 -0.968022,-2.236356 -2.903961,-3.705053 -1.869247,-1.535397 -3.504809,-2.30311 -4.906691,-2.303141 -5.006852,3.1e-5 -7.510264,2.403306 -7.510243,7.209833 -2.1e-5,4.005482 -1.268416,6.008211 -3.805189,6.008194 -1.668959,1.7e-5 -3.070869,-0.767696 -4.205736,-2.303141 -0.93462,-1.13486 -2.002742,-3.304484 -3.20437,-6.508877 -1.068132,0.667603 -1.602193,2.136271 -1.602185,4.406009 -8e-6,2.60357 2.069479,4.87333 6.208467,6.809286 0.934592,0.400561 1.401896,0.934622 1.401912,1.602185 l 0,0.60082 c -0.46732,0.333801 -0.901244,0.500695 -1.301776,0.500683 -1.401925,1.2e-5 -3.137623,-0.901216 -5.207101,-2.703688 -2.5368,-2.202987 -3.805195,-4.739777 -3.80519,-7.610379 -5e-6,-3.404617 1.368527,-6.508847 4.1056,-9.3127 2.803811,-2.870547 6.208451,-4.305836 10.213929,-4.305873 4.606258,3.7e-5 8.177792,0.634234 10.714613,1.902595 3.004063,1.53546 5.507475,4.272524 7.510242,8.211198 l 1.101503,-0.300409 c -0.467343,-4.339221 -2.169663,-8.077649 -5.106965,-11.215296 -2.536825,-2.737025 -4.873342,-4.105557 -7.00956,-4.105599 -0.133542,4.2e-5 -0.46733,0.100178 -1.001366,0.30041 -0.534087,0.200314 -1.00139,0.300451 -1.401911,0.30041 l -0.100137,0 c -0.467328,-0.133475 -0.834495,-0.200232 -1.101502,-0.200274 -0.934631,4.2e-5 -2.002753,0.233694 -3.20437,0.700956 -1.1349,0.400587 -1.802477,0.60086 -2.002732,0.60082 -0.867867,4e-5 -1.502065,-0.734294 -1.902594,-2.203005 l 0,-0.700956 c -1.7e-5,-2.73702 1.401894,-5.173674 4.205735,-7.309969 -0.133535,-0.06671 -0.400566,-0.100086 -0.801092,-0.100137 -1.668961,5.1e-5 -3.10425,0.667627 -4.305873,2.002732 -1.134895,1.335201 -1.702335,3.037521 -1.702321,5.106965 -1.4e-5,0.0668 0.06674,0.500725 0.200273,1.301775 0.200259,0.734376 0.300396,1.46871 0.30041,2.203004 l -0.30041,0 c -2.069501,4e-5 -3.104244,-1.368491 -3.104234,-4.105599 -10e-6,-2.937292 0.934597,-5.340567 2.803824,-7.209832 1.935958,-1.869163 4.43937,-2.80377 7.510243,-2.803824 4.606256,5.4e-5 8.711851,1.969404 12.316797,5.908057 3.60488,3.938749 6.308564,9.613149 8.111062,17.023216 l 0.700956,0.30041 c 0.467262,-0.867819 0.700913,-1.535395 0.700956,-2.002731 l 0,-3.304507 C 53.974553,50.053139 52.105339,45.747271 49.368312,41.474733 47.098515,37.869869 44.99565,35.366457 43.059709,33.964491 41.724525,33.230213 40.389372,32.495879 39.054246,31.761486 37.652309,30.76018 36.951353,29.157997 36.951378,26.954931 c -2.5e-5,-0.867786 0.367142,-1.668878 1.101502,-2.403278 0.801066,-0.734268 1.668916,-1.101435 2.603551,-1.101502 0.133487,6.7e-5 0.667548,0.267098 1.602185,0.801093 1.268365,0.667642 2.503382,1.235082 3.705053,1.702321 l 0.100137,-0.801092 C 44.99565,23.817385 42.892784,22.582369 39.755202,21.44742 39.221113,20.913427 38.954083,20.479503 38.95411,20.145644 c -2.7e-5,-0.200202 0.300382,-0.500612 0.901229,-0.901229 0.667548,-0.400474 1.368504,-0.600747 2.102868,-0.600819 3.67164,7.2e-5 8.044266,7.109761 13.11789,21.329088 0.133472,-0.133464 0.333745,-0.467253 0.600819,-1.001365 -1.936015,-10.280626 -2.904001,-16.355572 -2.90396,-18.224855 -4.1e-5,-2.670236 0.400505,-4.105526 1.201638,-4.305873 l 0.90123,0.400547 c 0.266987,-0.2002 0.400503,-0.400473 0.400546,-0.60082 -0.0668,-0.467229 -0.10018,-0.73426 -0.100137,-0.801092 -4.3e-5,-0.801017 0.367124,-1.602109 1.101503,-2.403278 0.801047,-0.801014 1.635518,-1.20156 2.503414,-1.201639 1.668894,7.9e-5 2.63688,0.634277 2.90396,1.902595 0.133466,0.867926 0.233602,1.702397 0.30041,2.503414 0.400496,0.200347 0.801042,0.40062 1.201639,0.60082 0.667525,0.467377 1.001313,1.468741 1.001365,3.004097 -5.2e-5,2.203072 -0.801144,5.707849 -2.403277,10.514339 -1.602233,4.739853 -2.403325,7.64381 -2.403278,8.711881 -4.7e-5,0.467355 0.100089,1.201689 0.30041,2.203005 3.404592,-11.482266 8.244521,-18.224788 14.519802,-20.227587 0.400484,-0.133446 0.634135,-0.200203 0.700956,-0.200273 0.333725,7e-5 0.500619,0.233722 0.500683,0.700956 -6.4e-5,0.467373 -0.968049,1.40198 -2.903961,2.803824 -2.336578,1.60225 -3.938761,3.137675 -4.806555,4.606282 3.337827,-2.469971 6.341921,-3.704988 9.012291,-3.705053 2.202938,6.5e-5 3.304439,0.701021 3.304507,2.102868 -6.8e-5,0.200336 -0.300478,1.001428 -0.901229,2.403278 -0.734401,1.602244 -1.368599,2.636987 -1.902595,3.104233 -0.734399,0.667634 -1.902658,1.301832 -3.50478,1.902595 -2.002791,0.801147 -3.237807,1.335208 -3.705053,1.602185 -2.336575,1.335207 -4.506199,3.404694 -6.508877,6.208467 -2.269811,3.137657 -4.072267,6.942843 -5.407374,11.415569 -1.068169,3.604949 -1.60223,6.6758 -1.602185,9.212564 -4.5e-5,0.46733 0.467259,1.001392 1.401912,1.602185 0.734288,-7.944134 3.771761,-14.820172 9.112427,-20.628133 4.873253,-5.273807 9.813319,-7.910734 14.820212,-7.910788 3.271055,5.4e-5 6.208391,0.968039 8.812018,2.90396 2.603469,1.869265 3.905243,4.072267 3.905326,6.609013 -8.3e-5,3.604958 -1.001447,5.407414 -3.004097,5.407375 -0.734414,3.9e-5 -1.101581,-0.367128 -1.101502,-1.101502 -7.9e-5,-0.266991 0.06668,-0.867809 0.200273,-1.802459 0.133436,-0.934564 0.200194,-1.702277 0.200273,-2.303141 -7.9e-5,-1.935927 -0.701034,-3.471353 -2.102868,-4.606282 -0.46738,-0.467254 -0.901305,-0.700906 -1.301775,-0.700956 -0.06683,5e-5 -0.16697,0.03343 -0.30041,0.100137 0.867774,2.336567 1.301699,3.638341 1.301775,3.905326 -7.6e-5,2.870624 -0.968062,4.305914 -2.90396,4.305872 -0.133589,4.2e-5 -0.66765,-0.300368 -1.602185,-0.901229 -0.934679,-0.667534 -1.802528,-1.001322 -2.603551,-1.001365 -4.940135,4.3e-5 -9.479655,1.769121 -13.618573,5.307238 -4.072272,3.471435 -6.10838,6.842696 -6.10833,10.113793 -5e-5,1.401938 0.400496,2.336545 1.201638,2.803824 0.400496,-0.200248 0.734284,-0.700931 1.001366,-1.502049 0.534009,-1.268368 0.901177,-2.102839 1.101502,-2.503414 1.535373,-2.737034 3.838512,-4.940037 6.909423,-6.609013 3.070792,-1.735663 6.375296,-2.603513 9.91352,-2.603551 10.147093,3.8e-5 15.220674,4.873346 15.220758,14.619939 M 62.686476,91.442879 c -5.1e-5,1.335152 -0.500733,2.436653 -1.502049,3.304507 -1.001413,0.867845 -2.269809,1.30177 -3.805189,1.301776 -1.201683,-6e-6 -2.269805,-0.700961 -3.20437,-2.102868 -0.934649,-1.335157 -1.401953,-2.837204 -1.401912,-4.506146 -4.1e-5,-1.335152 0.600778,-2.570168 1.802458,-3.705053 1.201595,-1.201633 2.336475,-1.802452 3.404643,-1.802458 1.26835,6e-6 2.369851,0.700962 3.304507,2.102868 0.934558,1.401915 1.401861,3.204371 1.401912,5.407374 m -1.101502,14.319531 c -5e-5,1.60217 -1.13493,2.40326 -3.404644,2.40328 -2.737109,-2e-5 -4.105641,-1.50207 -4.105599,-4.50615 -4.2e-5,-2.5368 1.06808,-3.805198 3.20437,-3.805189 1.26835,-9e-6 2.303094,0.567429 3.104234,1.702319 0.801043,1.13487 1.201589,2.53678 1.201639,4.20574 m 9.01229,-23.932641 c -5.8e-5,-3.337874 -1.36859,-6.442104 -4.105599,-9.312701 -2.737118,-2.937318 -5.974863,-4.405986 -9.713247,-4.406008 -4.272534,2.2e-5 -7.844067,1.235038 -10.714612,3.705053 -2.870613,2.470051 -4.305902,5.674418 -4.305873,9.61311 -2.9e-5,4.940074 0.767684,7.410107 2.303141,7.410106 l 1.401912,0 0,-1.702322 c -3.3e-5,-0.4673 -0.300442,-1.101498 -0.901229,-1.902595 -0.534093,-0.867844 -0.801124,-1.502041 -0.801092,-1.902594 -3.2e-5,-2.93733 1.335121,-5.807908 4.005462,-8.611745 2.737028,-2.803805 5.540849,-4.205716 8.411472,-4.205736 5.340567,2e-5 9.880087,4.839949 13.618573,14.519802 0.534003,-1.602178 0.801034,-2.6703 0.801092,-3.20437"
         id="path3956"
         inkscape:connector-curvature="0" />
    </g>
  </g>
  <g
     inkscape:groupmode="layer"
     id="layer7"
     inkscape:label="Flower3"
     style="display:inline">
    <g
       id="g3131"
       transform="matrix(0.57074053,0.5697017,-0.5697017,0.57074053,60.444423,-8.6138333)">
      <g
         transform="matrix(0.7230226,0.22876079,-0.22876079,0.7230226,32.973229,3.8607456)"
         id="text3932"
         style="font-size:70px;font-style:normal;font-variant:normal;font-weight:normal;font-stretch:normal;text-align:start;line-height:125%;letter-spacing:0px;word-spacing:0px;writing-mode:lr-tb;text-anchor:start;fill:#ffffff;fill-opacity:1;stroke:none;display:inline;font-family:Bodoni Ornaments;-inkscape-font-specification:Bodoni Ornaments">
        <path
           sodipodi:nodetypes="ccscccccccccccccscscccccscccccccccccccccccccccccccccccccccccccccccccccccccccccccccccccsccccccscc"
           inkscape:connector-curvature="0"
           id="path3953"
           d="m 85.655,71.655002 c -6.4e-5,2.286672 -0.723396,4.153337 -2.17,5.6 -1.54006,1.586668 -3.616724,2.38 -6.23,2.38 -2.520053,0 -5.53005,-1.539998 -9.03,-4.62 -0.326712,-0.279995 -1.190045,-1.213327 -2.59,-2.8 -0.980043,-1.119991 -1.913375,-1.913324 -2.8,-2.38 -1.254206,1.969357 0.20671,5.213015 0.56,6.72 0.793291,3.126667 1.189958,5.646664 1.19,7.56 -4.2e-5,1.959994 -0.793375,3.663325 -2.38,5.11 -1.540039,1.446656 -3.266703,2.169988 -5.18,2.17 -2.193366,-1.2e-5 -4.036698,-1.143344 -5.53,-3.43 -1.446695,-2.286673 -2.170027,-5.180003 -2.17,-8.68 -2.7e-5,-0.606666 0.769972,-3.546663 2.31,-8.82 -0.186696,-0.513324 -0.513362,-0.76999 -0.98,-0.77 -0.420028,1e-5 -0.886694,0.373343 -1.4,1.12 -1.166693,1.633341 -1.820025,2.520006 -1.96,2.66 -3.546688,4.200002 -7.700017,6.3 -12.46,6.3 -1.680011,0 -3.08001,-0.606666 -4.2,-1.82 -1.073341,-1.21333 -1.610007,-2.869995 -1.61,-4.97 -7e-6,-2.93999 1.423325,-5.459988 4.27,-7.56 2.846653,-2.14665 6.999982,-3.686649 12.46,-4.62 -0.513356,-0.886647 -1.586689,-1.446646 -3.22,-1.68 -1.960018,-0.233312 -3.920017,-0.466646 -5.88,-0.7 -2.613345,-0.419978 -4.713343,-1.539977 -6.3,-3.36 -1.49334,-1.679974 -2.240006,-3.499972 -2.24,-5.46 -6e-6,-1.913301 0.769993,-3.616633 2.31,-5.11 1.586657,-1.539963 3.359988,-2.309962 5.32,-2.31 1.819985,3.8e-5 3.873316,0.840037 6.16,2.52 3.779976,2.753366 5.996641,4.316697 6.65,4.69 -0.140026,-1.399968 -0.513359,-3.429966 -1.12,-6.09 -0.560025,-2.333295 -0.840024,-4.059959 -0.84,-5.18 -2.4e-5,-2.939955 0.676642,-5.249953 2.03,-6.93 1.399972,-1.726616 3.313304,-2.589949 5.74,-2.59 2.986631,5.1e-5 5.039963,1.096717 6.16,3.29 1.026627,1.913379 2.079378,5.280702 1.54,10.01 0.132147,3.040732 -2.201258,6.286617 -0.28,8.4 1.353292,-1.259969 3.033291,-3.126634 5.04,-5.6 1.773287,-2.239963 3.149952,-3.756628 4.13,-4.55 1.53995,-1.213293 3.313281,-1.819959 5.32,-1.82 2.42661,4.1e-5 4.409941,0.863374 5.95,2.59 1.539938,1.680037 2.309938,3.523369 2.31,5.53 -6.2e-5,3.22003 -1.306728,5.810028 -3.92,7.77 -4.374443,3.624488 -9.81411,2.621122 -13.23,5.74 7.186614,1.820018 11.80661,3.290017 13.86,4.41 2.939938,1.633347 4.409936,4.060011 4.41,7.28 m -7.98,-24.57 c -5.6e-5,-1.399966 -0.980055,-2.099965 -2.94,-2.1 -1.680051,3.5e-5 -3.710049,1.120034 -6.09,3.36 -2.333378,2.240029 -3.500043,4.200027 -3.5,5.88 -4.3e-5,0.466692 0.186623,0.793358 0.56,0.98 l 2.31,0 c 2.099952,2.5e-5 4.223283,-0.839975 6.37,-2.52 2.193279,-1.679971 3.289944,-3.546636 3.29,-5.6 m -19.74,-5.6 c -3.6e-5,-3.779958 -1.260035,-5.669956 -3.78,-5.67 -2.053363,4.4e-5 -3.080029,1.073376 -3.08,3.22 -2.9e-5,5.460035 1.306636,9.216698 3.92,11.27 1.959965,-2.193302 2.939964,-5.133299 2.94,-8.82 m 21.7,29.47 c -5.8e-5,-1.493323 -1.120056,-2.893322 -3.36,-4.2 -2.240052,-1.353319 -4.666716,-2.029985 -7.28,-2.03 -1.166712,1.5e-5 -2.146711,0.186682 -2.94,0.56 1.175124,4.171809 7.042379,8.627756 10.92,8.75 0.606611,6e-6 1.189944,-0.349994 1.75,-1.05 0.606609,-0.746659 0.909942,-1.423325 0.91,-2.03 m -18.13,-10.78 c -3.9e-5,-1.213313 -0.490039,-2.263311 -1.47,-3.15 -0.93337,-0.886643 -2.006703,-1.329976 -3.22,-1.33 -1.260033,2.4e-5 -2.380032,0.46669 -3.36,1.4 -0.933364,0.933355 -1.40003,2.006687 -1.4,3.22 -3e-5,1.166685 0.536636,2.193351 1.61,3.08 1.119967,0.886682 2.379966,1.330015 3.78,1.33 1.16663,1.5e-5 2.123296,-0.419985 2.87,-1.26 0.793294,-0.886649 1.189961,-1.983315 1.19,-3.29 m -15.19,-5.32 c -1.400023,-2.519973 -3.103354,-4.526637 -5.11,-6.02 -1.773351,-1.306634 -3.360016,-1.959967 -4.76,-1.96 -1.960012,3.3e-5 -2.940011,1.143365 -2.94,3.43 -1.1e-5,1.586695 0.746655,2.846693 2.24,3.78 1.539985,0.933358 3.593316,1.400024 6.16,1.4 1.353312,2.4e-5 2.823311,-0.209976 4.41,-0.63 m 14,26.74 c -3.8e-5,-2.753332 -0.420038,-5.179997 -1.26,-7.28 -0.840036,-1.959993 -1.773369,-3.126658 -2.8,-3.5 -1.633366,2.006674 -2.450032,4.923337 -2.45,8.75 -3.2e-5,1.493332 0.349968,2.776664 1.05,3.85 0.746633,1.073329 1.609966,1.609995 2.59,1.61 1.913296,-5e-6 2.869962,-1.143337 2.87,-3.43 m -13.3,-14.35 0,-1.96 c -1.960023,-0.373318 -2.846689,-0.559985 -2.66,-0.56 -2.053354,1.5e-5 -4.106685,0.723348 -6.16,2.17 -2.193347,1.540011 -3.290013,3.15001 -3.29,4.83 -1.3e-5,1.913339 1.096653,2.870005 3.29,2.87 1.773315,5e-6 3.943313,-1.119994 6.51,-3.36 1.539976,-1.353323 2.309975,-2.683322 2.31,-3.99" />
      </g>
      <path
         sodipodi:nodetypes="ccsscc"
         inkscape:connector-curvature="0"
         id="path3961"
         d="m 84.697785,12.295329 c 1.102655,5.520074 0.461644,11.78814 -2.798408,16.921628 -1.526051,2.358567 -3.925506,4.262485 -4.832468,6.906666 -1.189321,3.467374 3.100711,7.103676 6.310676,5.315286 8.557189,-4.767534 4.139699,-19.015756 2.520258,-25.372088 -0.362742,-1.272061 -0.764315,-2.529355 -1.200058,-3.771492 z"
         style="fill:#ffffff;fill-opacity:1;stroke:none" />
      <path
         style="fill:#ffffff;fill-opacity:1;stroke:none"
         d="m 31.564288,14.416076 c 5.285585,1.936406 10.300595,5.750749 12.982153,11.208759 1.21732,2.531759 1.591371,5.571887 3.375141,7.724196 2.339097,2.822375 7.678536,1.056742 7.825564,-2.614851 C 56.13909,20.946371 41.677036,17.289179 35.40841,15.357888 34.133755,15.004374 32.85146,14.691694 31.564288,14.416076 z"
         id="path3049"
         inkscape:connector-curvature="0"
         sodipodi:nodetypes="ccsscc" />
      <path
         style="fill:#ffffff;fill-opacity:1;stroke:none"
         d="m 114.35891,59.893939 c -4.36435,3.555209 -10.20504,5.918662 -16.267064,5.436476 -2.798377,-0.246494 -5.603127,-1.47762 -8.364585,-1.043317 -3.621164,0.56951 -4.830246,6.061794 -1.748738,8.063424 8.214752,5.335984 18.745307,-5.229695 23.607337,-9.632671 0.95494,-0.915316 1.87868,-1.858055 2.77305,-2.823912 z"
         id="path3060"
         inkscape:connector-curvature="0"
         sodipodi:nodetypes="ccsscc" />
      <path
         style="fill:#ffffff;fill-opacity:1;stroke:none"
         d="m 87.308321,107.70999 c -5.235364,-2.06834 -10.15315,-6.00724 -12.697,-11.530778 -1.15345,-2.561488 -1.45115,-5.610039 -3.180388,-7.806402 -2.267587,-2.880142 -7.649622,-1.248956 -7.888673,2.417795 -0.637259,9.774905 13.72854,13.793595 19.946762,15.881465 1.265395,0.38538 2.539444,0.73011 3.819299,1.03792 z"
         id="path3071"
         inkscape:connector-curvature="0"
         sodipodi:nodetypes="ccsscc" />
      <path
         style="fill:#ffffff;fill-opacity:1;stroke:none"
         d="m 33.581322,108.19174 c -0.898961,-5.55688 -0.02794,-11.797142 3.418637,-16.807303 1.611733,-2.300868 4.079563,-4.115283 5.083125,-6.724332 1.315995,-3.421305 -2.83745,-7.21287 -6.110995,-5.543704 -8.726681,4.449707 -4.836012,18.850707 -3.451356,25.262279 0.315729,1.28454 0.670809,2.55574 1.060589,3.81306 z"
         id="path3082"
         inkscape:connector-curvature="0"
         sodipodi:nodetypes="ccsscc" />
      <path
         style="fill:#ffffff;fill-opacity:1;stroke:none"
         d="m 5.7902013,64.212642 c 4.1836534,-3.76618 9.9006387,-6.414884 15.9790687,-6.232333 2.807129,0.108147 5.669197,1.199411 8.405868,0.629411 3.588661,-0.747453 4.525328,-6.292696 1.348829,-8.139874 -8.46798,-4.924242 -18.464491,6.148058 -23.1033968,10.785525 -0.9086303,0.961307 -1.7847371,1.948467 -2.6303689,2.957271 z"
         id="path3093"
         inkscape:connector-curvature="0"
         sodipodi:nodetypes="ccsscc" />
      <path
         sodipodi:nodetypes="zzzzz"
         inkscape:connector-curvature="0"
         d="m 32.184611,29.789439 c 2.165311,-0.0017 4.384761,1.092066 4.743314,4.344023 0.358551,3.251956 -3.048074,5.041326 -4.986177,4.798053 -1.938104,-0.243271 -4.800173,-2.68309 -4.286384,-5.075882 0.513787,-2.392793 2.363932,-4.064474 4.529247,-4.066194 z"
         id="path3111"
         style="fill:#ffffff;fill-opacity:1;stroke:none" />
      <path
         style="fill:#ffffff;fill-opacity:1;stroke:none"
         id="path3113"
         d="m 72.238333,19.800305 c 1.787952,1.221393 3.001951,3.377429 1.461411,6.263692 -1.540543,2.886262 -5.362463,2.439205 -6.824563,1.143948 -1.462102,-1.295255 -2.446299,-4.925064 -0.671018,-6.609644 1.775279,-1.684583 4.246204,-2.019375 6.03417,-0.797996 z"
         inkscape:connector-curvature="0"
         sodipodi:nodetypes="zzzzz" />
      <path
         sodipodi:nodetypes="zzzzz"
         inkscape:connector-curvature="0"
         d="m 101.46938,45.690486 c 0.86531,1.984891 0.74769,4.456419 -2.091293,6.082437 -2.838987,1.626016 -5.838749,-0.784037 -6.388791,-2.658305 -0.550046,-1.874268 0.545549,-5.472021 2.944673,-5.955381 2.399124,-0.483363 4.670081,0.54636 5.535411,2.531249 z"
         id="path3115"
         style="fill:#ffffff;fill-opacity:1;stroke:none" />
      <path
         style="fill:#ffffff;fill-opacity:1;stroke:none"
         id="path3117"
         d="m 93.008966,87.497415 c 0.272389,2.148105 -0.535318,4.486886 -3.716934,5.249187 -3.181615,0.7623 -5.382843,-2.393888 -5.38378,-4.347199 -9.41e-4,-1.953313 2.061919,-5.097954 4.500172,-4.887343 2.438253,0.210608 4.328125,1.837243 4.600542,3.985355 z"
         inkscape:connector-curvature="0"
         sodipodi:nodetypes="zzzzz" />
      <path
         sodipodi:nodetypes="zzzzz"
         inkscape:connector-curvature="0"
         d="m 51.386972,102.29875 c -2.131603,-0.38055 -4.123126,-1.84891 -3.902024,-5.1131 0.221112,-3.264182 3.890102,-4.424118 5.754828,-3.842551 1.86473,0.581563 4.251181,3.488281 3.323085,5.752806 -0.928094,2.264525 -3.044271,3.583375 -5.175889,3.202845 z"
         id="path3119"
         style="fill:#ffffff;fill-opacity:1;stroke:none" />
      <path
         style="fill:#ffffff;fill-opacity:1;stroke:none"
         id="path3121"
         d="m 23.804913,77.247362 c -2.157464,0.184116 -4.461168,-0.718771 -5.092434,-3.928958 -0.631254,-3.210185 2.612504,-5.280202 4.564212,-5.201078 1.951711,0.07912 5.009159,2.269134 4.698789,4.696706 -0.310367,2.427572 -2.013094,4.24919 -4.170567,4.43333 z"
         inkscape:connector-curvature="0"
         sodipodi:nodetypes="zzzzz" />
    </g>
  </g>
</svg>
